<svg xmlns="http://www.w3.org/2000/svg" width="29.804" height="29.769" viewBox="0 0 29.804 29.769">
  <g id="settings_grey" opacity="0.377">
    <path id="패스_9" data-name="패스 9" d="M20.81,17.15a3.655,3.655,0,1,1-3.655-3.65A3.653,3.653,0,0,1,20.81,17.15Z" transform="translate(-2.253 -2.266)" fill="none" stroke="#000" stroke-linecap="round" stroke-linejoin="round" stroke-width="3"/>
    <path id="패스_10" data-name="패스 10" d="M23.918,18.535a2.006,2.006,0,0,0,.4,2.214l.073.073a2.436,2.436,0,0,1-3.448,3.443l-.073-.073a2.027,2.027,0,0,0-3.436,1.436v.207a2.437,2.437,0,0,1-4.873,0v-.11a2.008,2.008,0,0,0-1.316-1.837,2.012,2.012,0,0,0-2.217.4l-.073.073a2.436,2.436,0,1,1-3.448-3.443l.073-.073a2.024,2.024,0,0,0-1.438-3.431H3.937a2.434,2.434,0,1,1,0-4.867h.11a2.01,2.01,0,0,0,1.84-1.314,2.006,2.006,0,0,0-.4-2.214l-.073-.073A2.436,2.436,0,0,1,8.859,5.5l.073.073a2.012,2.012,0,0,0,2.217.4h.1A2.008,2.008,0,0,0,12.465,4.14V3.934a2.437,2.437,0,0,1,4.873,0v.11a2.027,2.027,0,0,0,3.436,1.436l.073-.073A2.436,2.436,0,1,1,24.3,8.849l-.073.073a2.006,2.006,0,0,0-.4,2.214v.1a2.01,2.01,0,0,0,1.84,1.217h.207a2.434,2.434,0,1,1,0,4.867h-.11a2.01,2.01,0,0,0-1.84,1.217Z" fill="none" stroke="#000" stroke-linecap="round" stroke-linejoin="round" stroke-width="3"/>
  </g>
</svg>
