<svg id="explore_black_24dp" xmlns="http://www.w3.org/2000/svg" width="38.07" height="38.069" viewBox="0 0 38.07 38.069">
  <path id="패스_11" data-name="패스 11" d="M0,0H38.07V38.069H0Z" fill="none"/>
  <path id="패스_12" data-name="패스 12" d="M17.862,2A15.862,15.862,0,1,0,33.725,17.862,15.868,15.868,0,0,0,17.862,2Zm0,28.552a12.69,12.69,0,1,1,12.69-12.69A12.707,12.707,0,0,1,17.862,30.552ZM9.138,26.586,21.051,21.05,26.587,9.138,14.674,14.674Zm8.724-10.469a1.745,1.745,0,1,1-1.745,1.745A1.74,1.74,0,0,1,17.862,16.117Z" transform="translate(1.173 1.172)" fill="#959595"/>
</svg>
