<svg xmlns="http://www.w3.org/2000/svg" xmlns:xlink="http://www.w3.org/1999/xlink" width="129.819" height="149.96" viewBox="0 0 129.819 149.96">
  <defs>
    <filter id="합치기_1" x="0" y="0" width="129.819" height="149.96" filterUnits="userSpaceOnUse">
      <feOffset dx="3" dy="3" input="SourceAlpha"/>
      <feGaussianBlur stdDeviation="10" result="blur"/>
      <feFlood flood-color="#8d8d8d" flood-opacity="0.161"/>
      <feComposite operator="in" in2="blur"/>
      <feComposite in="SourceGraphic"/>
    </filter>
  </defs>
  <g id="mylocation" transform="translate(-166 -391.02)">
    <g transform="matrix(1, 0, 0, 1, 166, 391.02)" filter="url(#합치기_1)">
      <path id="합치기_1-2" data-name="합치기 1" d="M32.113,88.833,23.938,71.978H18a18,18,0,0,1-18-18V18A18,18,0,0,1,18,0H51.819a18,18,0,0,1,18,18V53.978a18,18,0,0,1-18,18H43.887L35.712,88.833a2,2,0,0,1-3.6,0Z" transform="translate(27 27)" fill="#7effa6"/>
    </g>
    <path id="Icon_material-my-location" data-name="Icon material-my-location" d="M21.564,14.512a7.437,7.437,0,1,0,7.3,7.436A7.365,7.365,0,0,0,21.564,14.512Zm16.307,5.577A16.565,16.565,0,0,0,23.388,5.329V1.5H19.74V5.329A16.565,16.565,0,0,0,5.257,20.089H1.5v3.718H5.257A16.565,16.565,0,0,0,19.74,38.567V42.4h3.648V38.567a16.565,16.565,0,0,0,14.483-14.76h3.757V20.089ZM21.564,34.961A12.883,12.883,0,0,1,8.8,21.948,12.883,12.883,0,0,1,21.564,8.936,12.883,12.883,0,0,1,34.332,21.948,12.883,12.883,0,0,1,21.564,34.961Z" transform="translate(206.345 430.604)" fill="#149a66"/>
  </g>
</svg>
