<svg xmlns="http://www.w3.org/2000/svg" xmlns:xlink="http://www.w3.org/1999/xlink" width="129.819" height="149.96" viewBox="0 0 129.819 149.96">
  <defs>
    <filter id="합치기_1" x="0" y="0" width="129.819" height="149.96" filterUnits="userSpaceOnUse">
      <feOffset dx="3" dy="3" input="SourceAlpha"/>
      <feGaussianBlur stdDeviation="10" result="blur"/>
      <feFlood flood-color="#8d8d8d" flood-opacity="0.161"/>
      <feComposite operator="in" in2="blur"/>
      <feComposite in="SourceGraphic"/>
    </filter>
  </defs>
  <g id="그룹_8" data-name="그룹 8" transform="translate(-105 -153)">
    <g transform="matrix(1, 0, 0, 1, 105, 153)" filter="url(#합치기_1)">
      <path id="합치기_1-2" data-name="합치기 1" d="M32.113,88.833,23.938,71.978H18a18,18,0,0,1-18-18V18A18,18,0,0,1,18,0H51.819a18,18,0,0,1,18,18V53.978a18,18,0,0,1-18,18H43.887L35.712,88.833a2,2,0,0,1-3.6,0Z" transform="translate(27 27)" fill="#66cc54"/>
    </g>
    <path id="Icon_metro-spoon-fork" data-name="Icon metro-spoon-fork" d="M10.334,1.5A7.807,7.807,0,0,0,2.749,9.512a7.937,7.937,0,0,0,5.835,7.8L7.328,35.843A2.235,2.235,0,0,0,9.7,38.128h1.264a2.235,2.235,0,0,0,2.373-2.285L12.084,17.31a7.937,7.937,0,0,0,5.835-7.8A7.807,7.807,0,0,0,10.334,1.5Zm25.493,0L33.72,12.946h-1.58L31.086,1.5H30.033L28.979,12.946H27.4L25.292,1.5H24.239V16.38A1.209,1.209,0,0,0,25.5,17.524H28.8L27.554,35.843a2.235,2.235,0,0,0,2.373,2.285h1.264a2.235,2.235,0,0,0,2.373-2.285L32.324,17.524h3.292A1.209,1.209,0,0,0,36.88,16.38V1.5Z" transform="translate(147.095 195.328)" fill="#fff"/>
  </g>
</svg>
