<svg xmlns="http://www.w3.org/2000/svg" width="34.131" height="36.628" viewBox="0 0 34.131 36.628">
  <path id="Icon_metro-spoon-fork" data-name="Icon metro-spoon-fork" d="M10.334,1.5A7.807,7.807,0,0,0,2.749,9.512a7.937,7.937,0,0,0,5.835,7.8L7.328,35.843A2.235,2.235,0,0,0,9.7,38.128h1.264a2.235,2.235,0,0,0,2.373-2.285L12.084,17.31a7.937,7.937,0,0,0,5.835-7.8A7.807,7.807,0,0,0,10.334,1.5Zm25.493,0L33.72,12.946h-1.58L31.086,1.5H30.033L28.979,12.946H27.4L25.292,1.5H24.239V16.38A1.209,1.209,0,0,0,25.5,17.524H28.8L27.554,35.843a2.235,2.235,0,0,0,2.373,2.285h1.264a2.235,2.235,0,0,0,2.373-2.285L32.324,17.524h3.292A1.209,1.209,0,0,0,36.88,16.38V1.5Z" transform="translate(-2.749 -1.5)" fill="#66cc54"/>
</svg>
